<?xml version="1.0" encoding="UTF-8" standalone="no"?>
<svg
   height="1600.553"
   preserveAspectRatio="xMidYMid"
   style="clip-rule:evenodd;fill-rule:evenodd;stroke-linejoin:round;stroke-miterlimit:2"
   version="1.1"
   viewBox="0 0 1199.717 1600.553"
   width="1199.717"
   xml:space="preserve"
   id="svg1"
   xmlns="http://www.w3.org/2000/svg"
   xmlns:svg="http://www.w3.org/2000/svg"><defs
     id="defs1" /><rect
     height="1600.553"
     id="Artboard1"
     style="fill:none;stroke-width:1"
     width="1199.717"
     x="-3.9650513e-06"
     y="1.3121587e-06" /><rect
     style="clip-rule:evenodd;fill:#000000;fill-opacity:0;fill-rule:evenodd;stroke:#000000;stroke-width:0;stroke-linejoin:round;stroke-miterlimit:2;stroke-opacity:0"
     id="rect1"
     width="1199.717"
     height="1600.553"
     x="-1.1923968e-06"
     y="-2.9921756e-07" /><path
     d="m 851.27902,1.3197379e-6 c 75.2,0 145.382,23.8849426802621 202.34398,64.4123926802621 88.567,63.015276 146.094,166.955746 146.094,283.806086 V 751.0885 c 0,27.51965 -22.268,49.85856 -49.805,49.96849 l -400.97598,0.7995 c -27.613,0 -49.997,-22.3729 -50,-49.9685 l 0.78,-698.405705 v -3.717657 c 0.1,-27.506659 22.466,-49.76162857 50,-49.7646266802625 z m -251.562,0 V 99.936998 h -251.249 c -138.452,0 -248.437,109.915712 -248.437,248.281482 v 904.11602 c 0,138.3648 109.985,248.2815 248.437,248.2815 h 502.811 c 138.452,0 248.43798,-109.9167 248.43798,-248.2815 V 900.99399 h 100 v 351.34051 c 0,192.002 -156.315,348.2185 -348.43798,348.2185 h -502.811 c -192.123,0 -348.43700015,-156.2155 -348.43700015,-348.2185 V 348.21848 C 0.03101985,156.21652 156.34502,1.3197379e-6 348.46802,1.3197379e-6 Z"
     id="RMB"
     style="clip-rule:evenodd;fill:#282828;fill-rule:nonzero;stroke-width:1;stroke-linejoin:round;stroke-miterlimit:2" /></svg>
