<?xml version="1.0" encoding="UTF-8" standalone="no"?>
<svg
   width="24"
   height="24"
   viewBox="0 0 24 24"
   fill="none"
   stroke="#E5E5E5"
   stroke-width="2"
   stroke-linecap="round"
   stroke-linejoin="round"
   version="1.1"
   id="svg1"
   style="stroke:#000000;stroke-opacity:1"
   xmlns="http://www.w3.org/2000/svg"
   xmlns:svg="http://www.w3.org/2000/svg">
  <defs
     id="defs1" />
	<rect
		 width="24"
		 height="24"
		 fill="#000000"
		 fill-opacity="0"
		 stroke="none"/>
	<path
     d="m 9.0859375,4.0507812 c -0.538254,6.144e-4 -0.983761,0.4461217 -0.984375,0.984375 V 18.964844 c 6.14e-4,0.538253 0.446122,0.98376 0.984375,0.984375 H 23.013672 C 23.552403,19.9495 23.999386,19.503796 24,18.964844 V 5.0351562 C 23.999386,4.4962044 23.552403,4.0505006 23.013672,4.0507812 Z M 3.1308594,4.140625 c -0.252454,0 -0.6159718,0.2082656 -0.6992188,0.2910156 L 0.29101563,6.5742187 C 0.11672513,6.7485087 0,6.9969235 0,7.2734375 0,7.8144525 0.45117247,8.2617188 0.99023438,8.2617188 H 2.1484375 V 18.890625 c -9.04e-5,0.0052 -9.04e-5,0.01043 0,0.01563 0.017007,0.506605 0.4389843,0.953125 0.9785156,0.953125 0.4234562,0 0.9661545,-0.333671 0.9882781,-0.953125 9.05e-5,-0.0052 9.05e-5,-0.01043 0,-0.01563 V 8.2617188 h 1.1582031 c 0.539062,0 0.9902344,-0.4472663 0.9902344,-0.9882813 0,-0.270313 -0.1160236,-0.5242278 -0.2910157,-0.6992188 L 3.8300781,4.4316406 C 3.6559132,4.2576616 3.3833133,4.140625 3.1308594,4.140625 Z M 10.070313,6.0214844 H 22.029297 V 17.978516 H 10.070313 Z m 2.808593,2.2070312 c -0.178439,-2.204e-4 -0.313903,0.065559 -0.404297,0.1660157 -0.09039,0.1004565 -0.13549,0.2348108 -0.136718,0.3691406 -0.0012,0.1343297 0.04232,0.2690014 0.130859,0.3710937 0.08854,0.102091 0.221978,0.1707861 0.400391,0.1738282 l 5.291015,0.033203 c 0.17842,2.01e-4 0.313912,-0.06556 0.404297,-0.1660156 0.09039,-0.1004539 0.135491,-0.2348202 0.136719,-0.3691407 0.0012,-0.1343204 -0.04233,-0.2690043 -0.13086,-0.3710937 -0.08853,-0.1020894 -0.221996,-0.1707686 -0.40039,-0.1738281 z m 0,2.1425784 c -0.181235,-0.0031 -0.318334,0.06326 -0.410156,0.164062 -0.09182,0.100802 -0.137431,0.235351 -0.138672,0.371094 -0.0012,0.135743 0.04285,0.272536 0.132813,0.375 0.08997,0.102464 0.224989,0.169689 0.40625,0.169922 l 4.21875,0.0332 c 0.188012,0.01055 0.330493,-0.05277 0.425781,-0.154297 0.09529,-0.101522 0.143256,-0.239716 0.144531,-0.378906 0.0013,-0.13919 -0.04526,-0.279562 -0.138672,-0.382813 -0.09341,-0.10325 -0.233702,-0.169213 -0.421875,-0.162109 z m 0,2.144531 c -0.171449,0.0052 -0.301141,0.07108 -0.388672,0.169922 -0.08753,0.09884 -0.132618,0.230548 -0.134765,0.361328 -0.0021,0.13078 0.03881,0.261619 0.123047,0.363281 0.08424,0.101662 0.211627,0.172742 0.382812,0.183594 l 2.076172,0.0332 c 0.187664,0.01161 0.329896,-0.05154 0.425781,-0.152344 0.09589,-0.1008 0.146152,-0.237914 0.148438,-0.376953 0.0023,-0.139039 -0.0442,-0.278917 -0.136719,-0.382812 -0.09252,-0.103895 -0.231978,-0.171455 -0.419922,-0.166016 z m -0.0098,2.142578 c -0.118278,-0.0055 -0.292647,0.01594 -0.423828,0.158203 -0.09443,0.102409 -0.142579,0.241582 -0.142579,0.38086 0,0.139277 0.04814,0.278451 0.142579,0.380859 0.09443,0.102408 0.23557,0.167204 0.423828,0.158203 l 6.361328,0.03516 c 0.178395,-0.0014 0.312891,-0.06865 0.402343,-0.169921 0.08945,-0.101271 0.134766,-0.234827 0.134766,-0.369141 0,-0.134314 -0.04531,-0.269824 -0.134766,-0.371094 -0.08945,-0.10127 -0.223948,-0.16848 -0.402343,-0.169922 z"
     style="baseline-shift:baseline;display:inline;overflow:visible;vector-effect:none;fill:#e5e5e5;stroke:none;stroke-linecap:butt;stroke-linejoin:miter;enable-background:accumulate;stop-color:#000000"
     id="path12" />
</svg>
