<?xml version="1.0" encoding="UTF-8" standalone="no"?>
<svg
   width="24"
   height="24"
   viewBox="0 0 24 24"
   fill="none"
   stroke="#E5E5E5"
   stroke-width="2"
   stroke-linecap="round"
   stroke-linejoin="round"
   version="1.1"
   id="svg1"
   style="stroke:#e5e5e5;stroke-opacity:1"
   xmlns="http://www.w3.org/2000/svg"
   xmlns:svg="http://www.w3.org/2000/svg">
  <defs
     id="defs1" />
	<rect
		 width="24"
		 height="24"
		 fill="#000000"
		 fill-opacity="0"
		 stroke="none"/>
  <path
     d="m 20.658203,0.03515625 c -0.550289,0 -1.100743,0.36768526 -1.089844,1.10351565 V 12.021484 c 0,1.815956 -1.450781,3.263672 -3.269531,3.263672 H 3.7558594 L 8.3984375,10.650391 C 9.4676488,9.6246871 7.8846931,8.0437445 6.8574219,9.1113281 L 0.35351563,15.605469 c -0.42546109,0.424993 -0.42546109,1.114069 0,1.539062 l 6.50390627,6.492188 c 0.197755,0.202087 0.467144,0.320289 0.75,0.328125 0.9911512,0.02716 1.5000738,-1.17505 0.7910156,-1.867188 L 3.7558594,17.462891 H 16.298828 c 2.996822,0 5.449219,-2.449186 5.449219,-5.441407 V 1.1386719 C 21.758467,0.40284151 21.208493,0.03515625 20.658203,0.03515625 Z"
     style="fill:#e5e5e5;stroke:#d02929;stroke-width:0"
     id="path1" />
</svg>
